HIERARCHY
ROOT Hips
{
  OFFSET 5.84602e-005 68.8428 3.50346
  CHANNELS 6 Xposition Yposition Zposition Zrotation Xrotation Yrotation
  JOINT Spine
  {
    OFFSET 0 8.597 -4.6522
    CHANNELS 3 Zrotation Xrotation Yrotation
    JOINT Spine1
    {
      OFFSET 0 7.8454 0.4098
      CHANNELS 3 Zrotation Xrotation Yrotation
      JOINT Spine2
      {
        OFFSET 0 9.7078 -2.1609
        CHANNELS 3 Zrotation Xrotation Yrotation
        JOINT Neck
        {
          OFFSET 0 21.8761 -0.4549
          CHANNELS 3 Zrotation Xrotation Yrotation
          JOINT Head
          {
            OFFSET 0 12.3537 3.3602
            CHANNELS 3 Zrotation Xrotation Yrotation
            End Site
            {
              OFFSET 0.0001 18.9506 0.5657
            }
          }
        }
        JOINT LeftShoulder
        {
          OFFSET 2.2086 21.1115 7.2329
          CHANNELS 3 Zrotation Xrotation Yrotation
          JOINT LeftArm
          {
            OFFSET 13.1193 3.0282 -4.8998
            CHANNELS 3 Zrotation Xrotation Yrotation
            JOINT LeftForeArm
            {
              OFFSET 27.4081 -0.0973053 -0.2375
              CHANNELS 3 Zrotation Xrotation Yrotation
              JOINT LeftHand
              {
                OFFSET 22.8641 0.0662994 -0.1369
                CHANNELS 3 Zrotation Xrotation Yrotation
                JOINT LeftHandIndex1
                {
                  OFFSET 8.8614 0.775009 2.4612
                  CHANNELS 3 Zrotation Xrotation Yrotation
                  JOINT LeftHandIndex2
                  {
                    OFFSET 3.3146 -0.808304 0.5841
                    CHANNELS 3 Zrotation Xrotation Yrotation
                    JOINT LeftHandIndex3
                    {
                      OFFSET 2.2628 -0.552002 0.3989
                      CHANNELS 3 Zrotation Xrotation Yrotation
                      End Site
                      {
                        OFFSET 1.6102 -0.4807 0.2612
                      }
                    }
                  }
                }
                JOINT LeftHandMiddle1
                {
                  OFFSET 8.9937 0.895004 0.2143
                  CHANNELS 3 Zrotation Xrotation Yrotation
                  JOINT LeftHandMiddle2
                  {
                    OFFSET 4.0984 0.0113983 -0.0242
                    CHANNELS 3 Zrotation Xrotation Yrotation
                    JOINT LeftHandMiddle3
                    {
                      OFFSET 2.2716 0.00689697 -0.0138001
                      CHANNELS 3 Zrotation Xrotation Yrotation
                      End Site
                      {
                        OFFSET 2.0404 -0.1441 0.0027
                      }
                    }
                  }
                }
                JOINT LeftHandRing1
                {
                  OFFSET 8.5234 0.597198 -2.0164
                  CHANNELS 3 Zrotation Xrotation Yrotation
                  JOINT LeftHandRing2
                  {
                    OFFSET 3.7188 -0.188293 -0.2328
                    CHANNELS 3 Zrotation Xrotation Yrotation
                    JOINT LeftHandRing3
                    {
                      OFFSET 2.1191 -0.106598 -0.1332
                      CHANNELS 3 Zrotation Xrotation Yrotation
                      End Site
                      {
                        OFFSET 1.8737 -0.2304 -0.0886
                      }
                    }
                  }
                }
                JOINT LeftHandPinky1
                {
                  OFFSET 7.9094 -0.601089 -3.4825
                  CHANNELS 3 Zrotation Xrotation Yrotation
                  JOINT LeftHandPinky2
                  {
                    OFFSET 2.2874 -0.477005 -0.6314
                    CHANNELS 3 Zrotation Xrotation Yrotation
                    JOINT LeftHandPinky3
                    {
                      OFFSET 1.6774 -0.349396 -0.4633
                      CHANNELS 3 Zrotation Xrotation Yrotation
                      End Site
                      {
                        OFFSET 1.4888 -0.4091 -0.3416
                      }
                    }
                  }
                }
                JOINT LeftHandThumb1
                {
                  OFFSET 1.833 -1.3875 1.3896
                  CHANNELS 3 Zrotation Xrotation Yrotation
                  JOINT LeftHandThumb2
                  {
                    OFFSET 3.4129 -1.121 2.5732
                    CHANNELS 3 Zrotation Xrotation Yrotation
                    JOINT LeftHandThumb3
                    {
                      OFFSET 2.2474 -0.804199 1.6192
                      CHANNELS 3 Zrotation Xrotation Yrotation
                      End Site
                      {
                        OFFSET 1.6527 -0.5689 1.1317
                      }
                    }
                  }
                }
              }
            }
          }
        }
        JOINT RightShoulder
        {
          OFFSET -2.2086 21.1115 7.2329
          CHANNELS 3 Zrotation Xrotation Yrotation
          JOINT RightArm
          {
            OFFSET -13.1216 3.0287 -4.9007
            CHANNELS 3 Zrotation Xrotation Yrotation
            JOINT RightForeArm
            {
              OFFSET -27.4081 -0.0973053 -0.2375
              CHANNELS 3 Zrotation Xrotation Yrotation
              JOINT RightHand
              {
                OFFSET -22.8641 0.0664063 -0.1369
                CHANNELS 3 Zrotation Xrotation Yrotation
                JOINT RightHandIndex1
                {
                  OFFSET -8.8614 0.774994 2.4612
                  CHANNELS 3 Zrotation Xrotation Yrotation
                  JOINT RightHandIndex2
                  {
                    OFFSET -3.3146 -0.808304 0.5841
                    CHANNELS 3 Zrotation Xrotation Yrotation
                    JOINT RightHandIndex3
                    {
                      OFFSET -2.2628 -0.552002 0.3989
                      CHANNELS 3 Zrotation Xrotation Yrotation
                      End Site
                      {
                        OFFSET -1.6102 -0.4807 0.2612
                      }
                    }
                  }
                }
                JOINT RightHandMiddle1
                {
                  OFFSET -8.9937 0.894989 0.2143
                  CHANNELS 3 Zrotation Xrotation Yrotation
                  JOINT RightHandMiddle2
                  {
                    OFFSET -4.0984 0.0113983 -0.0242
                    CHANNELS 3 Zrotation Xrotation Yrotation
                    JOINT RightHandMiddle3
                    {
                      OFFSET -2.2716 0.00691223 -0.0138001
                      CHANNELS 3 Zrotation Xrotation Yrotation
                      End Site
                      {
                        OFFSET -2.0404 -0.1441 0.0027
                      }
                    }
                  }
                }
                JOINT RightHandRing1
                {
                  OFFSET -8.5234 0.597198 -2.0164
                  CHANNELS 3 Zrotation Xrotation Yrotation
                  JOINT RightHandRing2
                  {
                    OFFSET -3.7188 -0.188309 -0.2328
                    CHANNELS 3 Zrotation Xrotation Yrotation
                    JOINT RightHandRing3
                    {
                      OFFSET -2.1191 -0.106598 -0.1332
                      CHANNELS 3 Zrotation Xrotation Yrotation
                      End Site
                      {
                        OFFSET -1.8737 -0.2304 -0.0886
                      }
                    }
                  }
                }
                JOINT RightHandPinky1
                {
                  OFFSET -7.9094 -0.601105 -3.4825
                  CHANNELS 3 Zrotation Xrotation Yrotation
                  JOINT RightHandPinky2
                  {
                    OFFSET -2.2874 -0.477005 -0.6314
                    CHANNELS 3 Zrotation Xrotation Yrotation
                    JOINT RightHandPinky3
                    {
                      OFFSET -1.6774 -0.349396 -0.4633
                      CHANNELS 3 Zrotation Xrotation Yrotation
                      End Site
                      {
                        OFFSET -1.4888 -0.4091 -0.3416
                      }
                    }
                  }
                }
                JOINT RightHandThumb1
                {
                  OFFSET -1.833 -1.38751 1.3896
                  CHANNELS 3 Zrotation Xrotation Yrotation
                  JOINT RightHandThumb2
                  {
                    OFFSET -3.41299 -1.12099 2.5732
                    CHANNELS 3 Zrotation Xrotation Yrotation
                    JOINT RightHandThumb3
                    {
                      OFFSET -2.24741 -0.804108 1.6192
                      CHANNELS 3 Zrotation Xrotation Yrotation
                      End Site
                      {
                        OFFSET -1.6527 -0.5689 1.1317
                      }
                    }
                  }
                }
              }
            }
          }
        }
      }
    }
  }
  JOINT RightUpLeg
  {
    OFFSET -9.1966 3.8861 -0.7581
    CHANNELS 3 Zrotation Xrotation Yrotation
    JOINT RightLeg
    {
      OFFSET -0.7359 -41.0265 0
      CHANNELS 3 Zrotation Xrotation Yrotation
      JOINT RightFoot
      {
        OFFSET 0 -40.2855 0
        CHANNELS 3 Zrotation Xrotation Yrotation
        JOINT RightToeBase
        {
          OFFSET 0 -5.6122 11.7359
          CHANNELS 3 Zrotation Xrotation Yrotation
          End Site
          {
            OFFSET 0 0 7.8731
          }
        }
      }
    }
  }
  JOINT LeftUpLeg
  {
    OFFSET 9.1965 3.8864 -0.7581
    CHANNELS 3 Zrotation Xrotation Yrotation
    JOINT LeftLeg
    {
      OFFSET 0.7359 -41.0268 0
      CHANNELS 3 Zrotation Xrotation Yrotation
      JOINT LeftFoot
      {
        OFFSET 0 -40.2855 0
        CHANNELS 3 Zrotation Xrotation Yrotation
        JOINT LeftToeBase
        {
          OFFSET 0 -5.6122 11.7359
          CHANNELS 3 Zrotation Xrotation Yrotation
          End Site
          {
            OFFSET 0 0 7.8731
          }
        }
      }
    }
  }
}
MOTION
Frames:	6
Frame Time:	0.0333333
-0.000814294 9.21905 69.4327 -0.0131249 -71.0095 179.991 -0.304065 1.52503 -0.114551 -0.605399 3.05064 -0.221118 -0.605399 3.05062 -0.221118 -1.41273e-005 -15.4579 -3.46871e-006 -0.0603061 -22.7924 -0.0248222 24.0529 16.5256 -13.6331 -39.1811 -50.5011 -45.5426 -17.4615 -29.6838 -116.538 7.59507 13.5005 -11.7193 6.53685e-007 1.45938e-006 -4.99169e-007 -1.06661e-006 8.78241e-007 -2.47321e-006 -2.76379e-007 1.90447e-006 -6.40699e-007 6.53685e-007 1.45938e-006 -4.99169e-007 -0.0146176 -8.52527e-005 -7.04117e-006 6.53642e-007 1.45944e-006 -4.98984e-007 6.53685e-007 1.45938e-006 -4.99169e-007 -0.0187452 -0.00117536 4.94684e-005 -2.77825e-007 1.90448e-006 -6.4038e-007 6.53685e-007 1.45938e-006 -4.99169e-007 -0.0122999 -0.00325441 0.000680348 6.53644e-007 1.45942e-006 -4.99029e-007 6.53685e-007 1.45938e-006 -4.99169e-007 -1.06661e-006 8.78241e-007 -2.47321e-006 -2.76379e-007 1.90447e-006 -6.40699e-007 -24.9386 16.4459 14.3249 42.2618 -50.3454 45.8441 17.4759 -29.8079 116.384 -19.946 1.84398 12.8507 -3.38889e-006 4.10927e-008 1.41683e-006 6.75868e-015 1.0635e-014 -6.36111e-015 -3.38889e-006 4.10927e-008 1.41683e-006 -3.38889e-006 4.10927e-008 1.41683e-006 0.0149976 -8.74938e-005 -6.02799e-006 -3.38903e-006 4.12788e-008 1.41683e-006 -3.38889e-006 4.10927e-008 1.41683e-006 0.0189967 -0.00119471 -6.67224e-005 -3.38905e-006 4.13365e-008 1.41686e-006 -3.38889e-006 4.10927e-008 1.41683e-006 0.0122715 -0.0032515 -0.000681588 -3.38896e-006 4.12538e-008 1.41693e-006 -3.38889e-006 4.10927e-008 1.41683e-006 6.75868e-015 1.0635e-014 -6.36111e-015 -3.38889e-006 4.10927e-008 1.41683e-006 -102.002 -33.2038 -88.7873 177.334 42.5252 176.495 -6.86845 15.2172 -4.39608 5.69291e-007 8.12995e-007 1.33836e-006 102.001 -33.2292 88.7802 -177.311 42.5261 -176.527 6.85895 15.2156 4.40746 6.66964e-006 3.70074e-007 6.86213e-007 
-0.000813405 9.22089 69.5195 -0.0131249 -71.0095 179.991 -0.304214 1.55833 -0.114008 -0.605662 3.11725 -0.219857 -0.605662 3.11725 -0.219857 -3.84177e-005 -15.7572 -8.18471e-006 -0.0604748 -23.0922 -0.0251477 24.1429 16.2437 -13.3744 -39.1811 -50.5011 -45.5426 -17.4615 -29.6838 -116.538 7.69195 13.4006 -11.5404 9.26405e-007 -4.51767e-007 1.42903e-007 -3.57309e-006 -1.51174e-007 1.158e-006 5.56597e-015 -7.95139e-016 3.18055e-015 9.26405e-007 -4.51767e-007 1.42903e-007 -0.0146305 -9.12458e-005 2.70384e-006 3.18055e-015 -7.15625e-015 -3.18055e-015 9.26405e-007 -4.51767e-007 1.42903e-007 -0.0187747 -0.00117847 5.43211e-005 3.18055e-015 7.15625e-015 -6.36111e-015 9.26405e-007 -4.51767e-007 1.42903e-007 -0.0122475 -0.00324521 0.000679219 7.95139e-015 7.15625e-015 -3.18055e-015 9.26405e-007 -4.51767e-007 1.42903e-007 -3.57309e-006 -1.51174e-007 1.158e-006 5.56597e-015 -7.95139e-016 3.18055e-015 -25.0043 16.1691 14.0463 42.3161 -50.2387 46.0445 17.4759 -29.8079 116.384 -20.0639 1.77296 12.6583 -2.28194e-008 -1.55504e-007 6.80319e-008 3.40961e-006 1.13282e-007 -1.48783e-006 -2.28192e-008 -1.55504e-007 6.80318e-008 -2.28194e-008 -1.55504e-007 6.80319e-008 0.0149768 -9.05472e-005 -1.22631e-006 -2.17037e-008 -1.55502e-007 6.80521e-008 -2.28194e-008 -1.55504e-007 6.80319e-008 0.0189846 -0.00118957 -6.05318e-005 -6.65929e-015 9.44227e-015 6.36111e-015 -2.28194e-008 -1.55504e-007 6.80319e-008 0.0122872 -0.00324807 -0.000680415 -2.19013e-008 -1.55739e-007 6.79985e-008 -2.28194e-008 -1.55504e-007 6.80319e-008 3.40961e-006 1.13282e-007 -1.48783e-006 -2.28192e-008 -1.55504e-007 6.80318e-008 -102.203 -33.2359 -88.9095 177.334 42.5254 176.494 -6.86877 15.2139 -4.39726 -3.24633e-006 -1.56148e-006 -1.94563e-007 102.201 -33.2606 88.9027 -177.311 42.5262 -176.526 6.8593 15.2123 4.40866 2.20422e-007 -3.93909e-006 -9.29502e-007 
-0.000812522 9.22274 69.6064 -0.0131249 -71.0095 179.991 -0.304369 1.59169 -0.113468 -0.605934 3.18394 -0.218598 -0.605935 3.18395 -0.218598 -8.7925e-006 -16.0576 -1.73215e-006 -0.060645 -23.3921 -0.0254745 24.2342 15.962 -13.1155 -39.1811 -50.5011 -45.5426 -17.4615 -29.6838 -116.538 7.7891 13.301 -11.3613 -7.95139e-016 8.74653e-015 3.18055e-015 -9.54166e-015 1.59028e-015 6.36111e-015 -6.36111e-015 4.77083e-015 6.36111e-015 -7.95139e-016 8.74653e-015 3.18055e-015 -0.0146276 -8.90846e-005 -3.41916e-006 7.95139e-016 7.95139e-015 -0 -7.95139e-016 8.74653e-015 3.18055e-015 -0.0187713 -0.00117453 5.44732e-005 5.56597e-015 1.59028e-015 3.18055e-015 -7.95139e-016 8.74653e-015 3.18055e-015 -0.0122691 -0.00324845 0.000678419 7.95139e-016 3.97569e-015 -6.36111e-015 -7.95139e-016 8.74653e-015 3.18055e-015 -9.54166e-015 1.59028e-015 6.36111e-015 -6.36111e-015 4.77083e-015 6.36111e-015 -25.0712 15.8923 13.7676 42.3697 -50.1319 46.2442 17.4759 -29.8079 116.384 -20.1821 1.70232 12.4657 -3.32485e-006 -8.41443e-010 4.85127e-006 3.98444e-006 -1.3617e-006 -5.55465e-006 -3.32485e-006 -8.41432e-010 4.85127e-006 -3.32485e-006 -8.41443e-010 4.85127e-006 0.0149878 -9.00297e-005 -1.19935e-005 -3.32476e-006 -2.07767e-010 4.85127e-006 -3.32485e-006 -8.41443e-010 4.85127e-006 0.0190071 -0.00119299 -5.78397e-005 -3.32469e-006 -4.50445e-011 4.8513e-006 -3.32485e-006 -8.41443e-010 4.85127e-006 0.0122578 -0.00324325 -0.000680362 -3.32464e-006 -3.60135e-010 4.85136e-006 -3.32485e-006 -8.41443e-010 4.85127e-006 3.98444e-006 -1.3617e-006 -5.55465e-006 -3.32485e-006 -8.41432e-010 4.85127e-006 -102.404 -33.2678 -89.032 177.334 42.5255 176.492 -6.86916 15.2105 -4.39842 2.86794e-006 4.06016e-006 6.68263e-006 102.402 -33.2917 89.0252 -177.311 42.5264 -176.524 6.85968 15.209 4.40981 -4.9927e-006 4.61377e-006 4.56092e-006 
-0.000812374 9.22458 69.6932 -0.0131249 -71.0095 179.991 -0.304525 1.62505 -0.112927 -0.606212 3.25068 -0.21734 -0.606212 3.25066 -0.21734 1.50997e-005 -16.3575 6.80358e-006 -0.0608175 -23.6921 -0.0258038 24.3266 15.6805 -12.8564 -39.1811 -50.5011 -45.5426 -17.4615 -29.6838 -116.538 7.88656 13.2017 -11.1822 -2.91929e-006 1.31009e-006 6.52855e-007 -3.57433e-006 -1.4956e-007 1.15237e-006 -3.57433e-006 -1.4956e-007 1.15237e-006 -2.91929e-006 1.31009e-006 6.52855e-007 -0.0146452 -8.39958e-005 2.63825e-006 -3.57442e-006 -1.49707e-007 1.15236e-006 -2.91929e-006 1.31009e-006 6.52855e-007 -0.0187723 -0.00117369 6.66264e-005 -3.57443e-006 -1.49753e-007 1.15239e-006 -2.91929e-006 1.31009e-006 6.52855e-007 -0.0122899 -0.00325075 0.000680574 -3.57437e-006 -1.49681e-007 1.15246e-006 -2.91929e-006 1.31009e-006 6.52855e-007 -3.57433e-006 -1.4956e-007 1.15237e-006 -3.57433e-006 -1.4956e-007 1.15237e-006 -25.1395 15.6157 13.4888 42.4226 -50.025 46.4434 17.4759 -29.8079 116.384 -20.3005 1.63208 12.2731 3.34828e-006 -2.16847e-007 -1.35243e-006 3.38256e-006 -4.45428e-008 -1.42581e-006 3.45113e-006 3.00065e-007 -1.57257e-006 3.34828e-006 -2.16847e-007 -1.35243e-006 0.0150036 -9.04905e-005 5.47141e-006 3.31637e-006 -3.89333e-007 -1.27901e-006 3.34828e-006 -2.16847e-007 -1.35243e-006 0.0189915 -0.00118785 -5.72725e-005 3.44846e-006 2.99972e-007 -1.57265e-006 3.34828e-006 -2.16847e-007 -1.35243e-006 0.0122907 -0.00324698 -0.000674845 3.38263e-006 -4.47055e-008 -1.42591e-006 3.34828e-006 -2.16847e-007 -1.35243e-006 3.38256e-006 -4.45428e-008 -1.42581e-006 3.45113e-006 3.00065e-007 -1.57257e-006 -102.605 -33.2992 -89.1546 177.334 42.5257 176.49 -6.86956 15.2072 -4.39962 3.24694e-006 1.56466e-006 1.84136e-007 102.603 -33.3224 89.148 -177.311 42.5265 -176.523 6.86 15.2056 4.41101 4.17721e-006 4.58921e-006 2.09414e-006 
-0.000811483 9.22643 69.78 -0.0131249 -71.0095 179.991 -0.30467 1.65835 -0.112382 -0.606466 3.31723 -0.216073 -0.606466 3.31726 -0.216073 -2.81346e-005 -16.6572 -8.53865e-006 -0.0609931 -23.9921 -0.0261344 24.4203 15.3997 -12.5972 -39.1811 -50.5011 -45.5426 -17.4615 -29.6838 -116.538 7.9843 13.1027 -11.0029 7.15625e-015 -6.36111e-015 6.36111e-015 3.18055e-015 2.38542e-015 -0 1.59028e-015 4.77083e-015 1.59028e-014 7.15625e-015 -6.36111e-015 6.36111e-015 -0.0146116 -8.78066e-005 -5.80642e-006 -7.15625e-015 -1.03368e-014 3.18055e-015 7.15625e-015 -6.36111e-015 6.36111e-015 -0.0187678 -0.0011762 5.82089e-005 -9.16696e-007 4.71455e-007 -1.47202e-007 7.15625e-015 -6.36111e-015 6.36111e-015 -0.0122515 -0.00323813 0.000677482 7.95139e-016 1.59028e-015 -1.27222e-014 7.15625e-015 -6.36111e-015 6.36111e-015 3.18055e-015 2.38542e-015 -0 1.59028e-015 4.77083e-015 1.59028e-014 -25.2092 15.3397 13.2101 42.4747 -49.918 46.642 17.4759 -29.8079 116.384 -20.4191 1.56222 12.0803 3.38044e-006 -4.57347e-008 -1.42886e-006 -3.98751e-008 -1.80803e-007 7.60457e-008 7.41868e-006 -1.45279e-006 -3.56443e-006 3.38044e-006 -4.57347e-008 -1.42886e-006 0.0149805 -8.97175e-005 -1.41952e-006 7.38015e-006 -1.63406e-006 -3.48818e-006 3.38044e-006 -4.57347e-008 -1.42886e-006 0.0189989 -0.0011887 -6.12686e-005 7.49585e-006 -1.09164e-006 -3.71641e-006 3.38044e-006 -4.57347e-008 -1.42886e-006 0.0123001 -0.00325887 -0.00067576 7.41877e-006 -1.45318e-006 -3.5645e-006 3.38044e-006 -4.57347e-008 -1.42886e-006 -3.98751e-008 -1.80803e-007 7.60457e-008 7.41868e-006 -1.45279e-006 -3.56443e-006 -102.806 -33.3304 -89.2774 177.334 42.5258 176.489 -6.86987 15.2038 -4.40081 -5.77881e-007 -8.11064e-007 -1.33468e-006 102.805 -33.3528 89.271 -177.311 42.5267 -176.521 6.86041 15.2023 4.41217 1.08071e-005 1.17118e-005 -4.80956e-006 
-0.000810565 9.22828 69.8669 -0.0131249 -71.0095 179.991 -0.304822 1.69169 -0.11184 -0.606739 3.38391 -0.214812 -0.606739 3.38392 -0.214812 -2.89265e-005 -16.9565 -5.03877e-006 -0.0611706 -24.2921 -0.0264666 24.5152 15.119 -12.3378 -39.1811 -50.5011 -45.5426 -17.4615 -29.6838 -116.538 8.08232 13.0039 -10.8235 -6.55895e-007 -1.45982e-006 4.99796e-007 -1.99919e-006 1.29401e-006 -2.62358e-006 -6.55894e-007 -1.45982e-006 4.99796e-007 -6.55895e-007 -1.45982e-006 4.99796e-007 -0.0146378 -9.1425e-005 5.47138e-006 -6.55853e-007 -1.45988e-006 4.9961e-007 -6.55895e-007 -1.45982e-006 4.99796e-007 -0.0187792 -0.00117566 5.7558e-005 -6.55837e-007 -1.4599e-006 4.99564e-007 -6.55895e-007 -1.45982e-006 4.99796e-007 -0.012278 -0.0032486 0.000670528 -1.56833e-006 -9.82076e-007 3.50935e-007 -6.55895e-007 -1.45982e-006 4.99796e-007 -1.99919e-006 1.29401e-006 -2.62358e-006 -6.55894e-007 -1.45982e-006 4.99796e-007 -25.2801 15.0638 12.9313 42.5262 -49.8108 46.8399 17.4759 -29.8079 116.384 -20.538 1.49275 11.8873 -4.53767e-008 -1.89371e-007 7.87061e-008 6.95746e-016 -6.95746e-016 3.18055e-015 2.28602e-015 3.97569e-016 -0 -4.53767e-008 -1.89371e-007 7.87061e-008 0.0149891 -9.02353e-005 -5.14031e-006 -4.42602e-008 -1.89368e-007 7.87305e-008 -4.53767e-008 -1.89371e-007 7.87061e-008 0.018976 -0.00118851 -5.61946e-005 -4.39624e-008 -1.89447e-007 7.87337e-008 -4.53767e-008 -1.89371e-007 7.87061e-008 0.0122365 -0.0032464 -0.000686822 -4.4462e-008 -1.89605e-007 7.86764e-008 -4.53767e-008 -1.89371e-007 7.87061e-008 6.95746e-016 -6.95746e-016 3.18055e-015 2.28602e-015 3.97569e-016 -0 -103.008 -33.3612 -89.4005 177.334 42.526 176.487 -6.87027 15.2005 -4.40199 -1.71995e-007 7.36601e-006 1.40081e-006 103.006 -33.3829 89.3942 -177.311 42.5268 -176.519 6.86077 15.199 4.41336 2.49045e-006 -4.23512e-006 -1.44781e-006 
